<?xml version="1.0" encoding="UTF-8"?>
<svg id="_レイヤー_2" data-name="レイヤー 2" xmlns="http://www.w3.org/2000/svg" viewBox="0 0 294.71 86.55">
  <defs>
    <style>
      .cls-1 {
        fill: #222;
      }
    </style>
  </defs>
  <g id="Layer_1" data-name="Layer 1">
    <g>
      <g>
        <path class="cls-1" d="M56.92,84.3c-18.54,6.28-38.31-1.1-48.9-16.02-1.88-2.65-1.78-3.3.98-4.89,2.48-1.43,4.97-2.84,7.47-4.24,2.21-1.24,2.53-1.2,4.03.76,4.76,6.22,10.98,10.04,18.72,11.18,10.07,1.48,18.45-1.84,25.28-9.3.34-.37.67-.74.95-1.15,2.13-3.11,2.27-2.65,5.21-1,2.5,1.4,4.97,2.84,7.45,4.27,1.8,1.04,1.99,1.63.86,3.41-2.36,3.71-5.37,6.85-8.75,9.63-3.93,3.23-8.35,5.62-13.29,7.35Z"/>
        <path class="cls-1" d="M.79,34.22c1.78-8.51,5.51-15.84,11.48-21.97C19.03,5.31,27.31,1.4,36.86.11c2.64-.36,3.03.07,3.04,2.75,0,3.17-.06,6.35.03,9.51.04,1.55-.56,2.25-2.06,2.5-12.39,2.07-22.1,12.23-23.31,24.54-.34,3.52-.23,7.08.9,10.51.48,1.46.19,2.4-1.3,3.17-2.92,1.52-5.72,3.27-8.58,4.9-1.93,1.1-2.59.83-3.31-1.22-2.56-7.33-2.81-14.81-1.47-22.56Z"/>
        <path class="cls-1" d="M70.04,32.66c-4.11-9.77-11.07-15.9-21.49-17.77-1.7-.31-2.44-.98-2.35-2.83.17-3.41.15-6.84.09-10.25-.03-1.32.4-1.82,1.7-1.75,4.46.23,8.73,1.34,12.75,3.18,14.25,6.5,22.33,17.66,24.78,33.06,1.05,6.62.61,13.1-1.21,19.51-.88,3.11-1.68,3.41-4.46,1.83-2.54-1.45-5.05-2.94-7.64-4.3-1.49-.78-1.8-1.77-1.39-3.35,1.49-5.79,1.43-11.54-.79-17.32Z"/>
        <path class="cls-1" d="M52.68,34.39c-1.14,2.13-2.22,4.15-3.36,6.3,2.08.8,4.03.19,5.91.35,1.75.15,2.33.77,2.16,2.4-.05.49,0,1-.01,1.49,0,1.21-.49,1.79-1.82,1.75-2.55-.08-5.1,0-7.66-.04-1.2-.02-1.67.46-1.67,1.66,0,1.2.3,1.88,1.67,1.85,2.49-.06,4.98.05,7.47-.03,1.93-.06,2.13,1.07,2.02,2.54-.1,1.36.38,3.04-1.98,2.96-2.3-.08-4.61.09-6.91-.05-1.86-.11-2.43.63-2.29,2.38.12,1.42,0,2.86.03,4.29.02,1.07-.37,1.61-1.52,1.6-5.74-.07-4.94.65-4.93-4.56,0-.44-.05-.88,0-1.31.18-1.79-.61-2.47-2.39-2.4-2.17.09-4.36-.04-6.54.03-1.5.05-2.02-.65-1.97-2.02.02-.56.02-1.12.01-1.68-.03-1.24.54-1.81,1.81-1.79,2.3.04,4.61-.01,6.91.02,1.3.01,2.16-.3,2.14-1.87-.02-1.54-.93-1.65-2.11-1.64-2.24.03-4.48-.06-6.72.02-1.57.06-2.16-.64-2.06-2.12.03-.5.05-1,0-1.49-.13-1.47.55-1.99,1.98-1.93,1.97.08,3.95.02,6.11.02-.51-1.83-1.39-3.11-2.13-4.45-1.91-3.42-3.86-6.83-5.78-10.25-.94-1.68-.73-2.09,1.19-2.06,6.41.11,4.34-1.01,7.63,4.51,1.71,2.88,3.28,5.84,4.88,8.69.94-.08,1.01-.74,1.27-1.19,1.91-3.42,3.83-6.84,5.67-10.3.66-1.25,1.49-1.88,2.95-1.74,1.11.11,2.24.05,3.36.02,1.53-.04,1.94.54,1.17,1.91-1.49,2.66-2.96,5.33-4.51,8.12Z"/>
      </g>
      <g>
        <path class="cls-1" d="M127.49,44.75c0,6.56.11,13.07.55,19.64l-9.46.55c-.38-6.67-.55-13.51-.55-20.19v-2.08l-2.84,14.77-8.1-1.64,3.01-14.77-2.74-.55,1.53-8.59,9.3,1.64c.11-3.45.27-7.38.38-11.92l9.57.44c-.55,9.57-.66,17.07-.66,22.7ZM144.45,62.64l-8.1-4.54c3.28-4.76,4.92-9.52,4.92-14.44,0-4.1-1.91-6.29-5.74-6.29-.93,0-2.02.27-3.28.66l-1.92-8.59c1.81-.55,3.56-.82,5.2-.82,4.65,0,8.37,1.37,11.1,3.94,2.73,2.74,4.1,6.46,4.1,11.1,0,6.56-2.08,12.8-6.29,18.98Z"/>
        <path class="cls-1" d="M161.68,63.84c-4.27-6.84-6.45-14.33-6.45-22.65,0-5.47.98-11.21,2.73-17.12l9.03,2.35c-1.48,5.2-2.3,10.12-2.3,14.77,0,4.1.55,7.66,1.48,10.94l2.46-1.26,3.83,8.21-10.78,4.76ZM193.52,38.84c-.11,9.19-1.2,17.5-3.28,24.73l-9.3-1.75c1.81-6.29,2.9-13.95,3.01-22.97h-5.03v-8.75h5.03v-5.58h9.57v5.58h3.01v8.75h-3.01Z"/>
        <path class="cls-1" d="M215.01,36.38l-1.53,13.95-9.41-.82,1.48-13.13h-2.3v-8.75h3.28l.55-4.76,9.3.82-.44,3.94h3.83v8.75h-4.76ZM230.33,62.64c-3.01,0-6.18-.27-9.85-.82l1.2-11.6,9.46.93-.27,2.74c3.67-.11,6.56-.38,8.75-.82l1.09,8.75c-3.01.55-6.46.82-10.39.82ZM228.25,34.47v-8.75h11.1v8.75h-11.1Z"/>
        <path class="cls-1" d="M290.88,58.92c-9.13-2.84-17.78-9.41-25.98-19.64l-11.87,12.69-7.27-5.58,15.86-17.23,7.66.55c7.55,10.5,16.03,17.34,25.44,20.62l-3.83,8.59ZM278.19,37.48v-6.67h5.74v6.67h-5.74ZM286.23,37.48v-6.67h5.74v6.67h-5.74Z"/>
      </g>
    </g>
  </g>
</svg>