<?xml version="1.0" encoding="UTF-8"?>
<svg id="_レイヤー_2" data-name="レイヤー 2" xmlns="http://www.w3.org/2000/svg" viewBox="0 0 286.78 86.55">
  <defs>
    <style>
      .cls-1 {
        fill: #fff;
      }
    </style>
  </defs>
  <g id="Layer_1" data-name="Layer 1">
    <g>
      <g>
        <path class="cls-1" d="M56.92,84.3c-18.54,6.28-38.31-1.1-48.9-16.02-1.88-2.65-1.78-3.3.98-4.89,2.48-1.43,4.97-2.84,7.47-4.24,2.21-1.24,2.53-1.2,4.03.76,4.76,6.22,10.98,10.04,18.72,11.18,10.07,1.48,18.45-1.84,25.28-9.3.34-.37.67-.74.95-1.15,2.13-3.11,2.27-2.65,5.21-1,2.5,1.4,4.97,2.84,7.45,4.27,1.8,1.04,1.99,1.63.86,3.41-2.36,3.71-5.37,6.85-8.75,9.63-3.93,3.23-8.35,5.62-13.29,7.35Z"/>
        <path class="cls-1" d="M.79,34.22c1.78-8.51,5.51-15.84,11.48-21.97C19.03,5.31,27.31,1.4,36.86.11c2.64-.36,3.03.07,3.04,2.75,0,3.17-.06,6.35.03,9.51.04,1.55-.56,2.25-2.06,2.5-12.39,2.07-22.1,12.23-23.31,24.54-.34,3.52-.23,7.08.9,10.51.48,1.46.19,2.4-1.3,3.17-2.92,1.52-5.72,3.27-8.58,4.9-1.93,1.1-2.59.83-3.31-1.22-2.56-7.33-2.81-14.81-1.47-22.56Z"/>
        <path class="cls-1" d="M70.04,32.66c-4.11-9.77-11.07-15.9-21.49-17.77-1.7-.31-2.44-.98-2.35-2.83.17-3.41.15-6.84.09-10.25-.03-1.32.4-1.82,1.7-1.75,4.46.23,8.73,1.34,12.75,3.18,14.25,6.5,22.33,17.66,24.78,33.06,1.05,6.62.61,13.1-1.21,19.51-.88,3.11-1.68,3.41-4.46,1.83-2.54-1.45-5.05-2.94-7.64-4.3-1.49-.78-1.8-1.77-1.39-3.35,1.49-5.79,1.43-11.54-.79-17.32Z"/>
        <path class="cls-1" d="M52.68,34.39c-1.14,2.13-2.22,4.15-3.36,6.3,2.08.8,4.03.19,5.91.35,1.75.15,2.33.77,2.16,2.4-.05.49,0,1-.01,1.49,0,1.21-.49,1.79-1.82,1.75-2.55-.08-5.1,0-7.66-.04-1.2-.02-1.67.46-1.67,1.66,0,1.2.3,1.88,1.67,1.85,2.49-.06,4.98.05,7.47-.03,1.93-.06,2.13,1.07,2.02,2.54-.1,1.36.38,3.04-1.98,2.96-2.3-.08-4.61.09-6.91-.05-1.86-.11-2.43.63-2.29,2.38.12,1.42,0,2.86.03,4.29.02,1.07-.37,1.61-1.52,1.6-5.74-.07-4.94.65-4.93-4.56,0-.44-.05-.88,0-1.31.18-1.79-.61-2.47-2.39-2.4-2.17.09-4.36-.04-6.54.03-1.5.05-2.02-.65-1.97-2.02.02-.56.02-1.12.01-1.68-.03-1.24.54-1.81,1.81-1.79,2.3.04,4.61-.01,6.91.02,1.3.01,2.16-.3,2.14-1.87-.02-1.54-.93-1.65-2.11-1.64-2.24.03-4.48-.06-6.72.02-1.57.06-2.16-.64-2.06-2.12.03-.5.05-1,0-1.49-.13-1.47.55-1.99,1.98-1.93,1.97.08,3.95.02,6.11.02-.51-1.83-1.39-3.11-2.13-4.45-1.91-3.42-3.86-6.83-5.78-10.25-.94-1.68-.73-2.09,1.19-2.06,6.41.11,4.34-1.01,7.63,4.51,1.71,2.88,3.28,5.84,4.88,8.69.94-.08,1.01-.74,1.27-1.19,1.91-3.42,3.83-6.84,5.67-10.3.66-1.25,1.49-1.88,2.95-1.74,1.11.11,2.24.05,3.36.02,1.53-.04,1.94.54,1.17,1.91-1.49,2.66-2.96,5.33-4.51,8.12Z"/>
      </g>
      <g>
        <path class="cls-1" d="M127.49,44.75c0,6.56.11,13.07.55,19.64l-9.46.55c-.38-6.67-.55-13.51-.55-20.19v-2.08l-2.84,14.77-8.1-1.64,3.01-14.77-2.74-.55,1.53-8.59,9.3,1.64c.11-3.45.27-7.39.38-11.93l9.57.44c-.55,9.57-.66,17.07-.66,22.7ZM144.45,62.64l-8.1-4.54c3.28-4.76,4.92-9.52,4.92-14.44,0-4.1-1.91-6.29-5.74-6.29-.93,0-2.02.27-3.28.66l-1.92-8.59c1.81-.55,3.56-.82,5.2-.82,4.65,0,8.37,1.37,11.1,3.94,2.73,2.74,4.1,6.46,4.1,11.1,0,6.56-2.08,12.8-6.29,18.98Z"/>
        <path class="cls-1" d="M158.94,48.85v-26.15h9.57v26.15h-9.57ZM180.11,67.67l-6.13-6.67c5.85-4.54,8.75-10.23,8.75-17.07,0-4.54-.16-8.48-.55-12.2l-2.63.44-1.48-8.48,12.31-2.19c1.37,7.77,1.91,15.15,1.91,22.43,0,9.57-3.99,17.45-12.2,23.74Z"/>
        <path class="cls-1" d="M236.89,59.08c-.82-.44-1.81-.98-2.74-1.64-.27,3.12-1.37,5.58-3.28,7.38-2.08,1.64-4.81,2.57-8.21,2.57v-8.48c.66,0,1.37-.27,1.75-.66.55-.44.82-1.09.82-1.8,0-1.64-.82-2.41-2.3-2.41-.82,0-1.53.27-1.92.66-.55.55-.71,1.09-.71,1.75,0,.55.16.98.44,1.53l-9.03,1.64c-.27-1.09-.44-2.08-.44-2.9,0-3.67,1.09-6.4,3.45-8.42,2.3-1.8,5.2-2.74,8.86-2.74h1.09v-4.27c-5.58.71-11.21,1.09-16.68,1.26l-.66-8.64c6.02-.27,11.76-.82,17.34-1.37v-9.96h9.46v8.48c.93-.16,1.91-.27,2.74-.55l1.75,8.59c-1.48.27-3.01.55-4.49.82v7.66c1.75.71,4.38,2.08,7.66,4.1l-4.92,7.38ZM208.45,30.64v-8.21h11.87v8.21h-11.87Z"/>
        <path class="cls-1" d="M281.2,62.75c-3.45,2.35-7.66,3.56-12.85,3.56-3.28,0-6.18-.82-8.37-2.46-2.57-1.75-3.83-4.21-3.83-7.49,0-2.84.99-5.03,2.9-6.67,1.92-1.64,4.21-2.46,7.22-2.46,1.37,0,2.74.27,4.27.82l-1.8,6.51c-.55-.11-1.09-.22-1.64-.22-1.2,0-1.91.66-1.91,1.86,0,1.37,1.09,1.92,3.17,1.92,2.46,0,4.65-.38,6.29-1.48,1.91-1.26,2.84-3.01,2.84-5.47,0-2.19-1.09-3.83-3.56-5.03-1.91-.99-4.1-1.37-6.4-1.37-3.45,0-7.39.55-11.76,1.64l5.31-15.75h-3.56v-8.75h15.04l-4.49,14.5h.55c5.2,0,9.41,1.09,12.58,3.45,3.83,2.57,5.58,6.4,5.58,11.32s-1.91,9.03-5.58,11.6Z"/>
      </g>
    </g>
  </g>
</svg>