<?xml version="1.0" encoding="UTF-8"?>
<svg id="_レイヤー_2" data-name="レイヤー 2" xmlns="http://www.w3.org/2000/svg" viewBox="0 0 291.97 86.55">
  <defs>
    <style>
      .cls-1 {
        fill: #fff;
      }
    </style>
  </defs>
  <g id="Layer_1" data-name="Layer 1">
    <g>
      <g>
        <path class="cls-1" d="M56.92,84.3c-18.54,6.28-38.31-1.1-48.9-16.02-1.88-2.65-1.78-3.3.98-4.89,2.48-1.43,4.97-2.84,7.47-4.24,2.21-1.24,2.53-1.2,4.03.76,4.76,6.22,10.98,10.04,18.72,11.18,10.07,1.48,18.45-1.84,25.28-9.3.34-.37.67-.74.95-1.15,2.13-3.11,2.27-2.65,5.21-1,2.5,1.4,4.97,2.84,7.45,4.27,1.8,1.04,1.99,1.63.86,3.41-2.36,3.71-5.37,6.85-8.75,9.63-3.93,3.23-8.35,5.62-13.29,7.35Z"/>
        <path class="cls-1" d="M.79,34.22c1.78-8.51,5.51-15.84,11.48-21.97C19.03,5.31,27.31,1.4,36.86.11c2.64-.36,3.03.07,3.04,2.75,0,3.17-.06,6.35.03,9.51.04,1.55-.56,2.25-2.06,2.5-12.39,2.07-22.1,12.23-23.31,24.54-.34,3.52-.23,7.08.9,10.51.48,1.46.19,2.4-1.3,3.17-2.92,1.52-5.72,3.27-8.58,4.9-1.93,1.1-2.59.83-3.31-1.22-2.56-7.33-2.81-14.81-1.47-22.56Z"/>
        <path class="cls-1" d="M70.04,32.66c-4.11-9.77-11.07-15.9-21.49-17.77-1.7-.31-2.44-.98-2.35-2.83.17-3.41.15-6.84.09-10.25-.03-1.32.4-1.82,1.7-1.75,4.46.23,8.73,1.34,12.75,3.18,14.25,6.5,22.33,17.66,24.78,33.06,1.05,6.62.61,13.1-1.21,19.51-.88,3.11-1.68,3.41-4.46,1.83-2.54-1.45-5.05-2.94-7.64-4.3-1.49-.78-1.8-1.77-1.39-3.35,1.49-5.79,1.43-11.54-.79-17.32Z"/>
        <path class="cls-1" d="M52.68,34.39c-1.14,2.13-2.22,4.15-3.36,6.3,2.08.8,4.03.19,5.91.35,1.75.15,2.33.77,2.16,2.4-.05.49,0,1-.01,1.49,0,1.21-.49,1.79-1.82,1.75-2.55-.08-5.1,0-7.66-.04-1.2-.02-1.67.46-1.67,1.66,0,1.2.3,1.88,1.67,1.85,2.49-.06,4.98.05,7.47-.03,1.93-.06,2.13,1.07,2.02,2.54-.1,1.36.38,3.04-1.98,2.96-2.3-.08-4.61.09-6.91-.05-1.86-.11-2.43.63-2.29,2.38.12,1.42,0,2.86.03,4.29.02,1.07-.37,1.61-1.52,1.6-5.74-.07-4.94.65-4.93-4.56,0-.44-.05-.88,0-1.31.18-1.79-.61-2.47-2.39-2.4-2.17.09-4.36-.04-6.54.03-1.5.05-2.02-.65-1.97-2.02.02-.56.02-1.12.01-1.68-.03-1.24.54-1.81,1.81-1.79,2.3.04,4.61-.01,6.91.02,1.3.01,2.16-.3,2.14-1.87-.02-1.54-.93-1.65-2.11-1.64-2.24.03-4.48-.06-6.72.02-1.57.06-2.16-.64-2.06-2.12.03-.5.05-1,0-1.49-.13-1.47.55-1.99,1.98-1.93,1.97.08,3.95.02,6.11.02-.51-1.83-1.39-3.11-2.13-4.45-1.91-3.42-3.86-6.83-5.78-10.25-.94-1.68-.73-2.09,1.19-2.06,6.41.11,4.34-1.01,7.63,4.51,1.71,2.88,3.28,5.84,4.88,8.69.94-.08,1.01-.74,1.27-1.19,1.91-3.42,3.83-6.84,5.67-10.3.66-1.25,1.49-1.88,2.95-1.74,1.11.11,2.24.05,3.36.02,1.53-.04,1.94.54,1.17,1.91-1.49,2.66-2.96,5.33-4.51,8.12Z"/>
      </g>
      <g>
        <path class="cls-1" d="M214.43,46.95c2.31-.42,4.48-.35,6.65-.18,1.43.12,1.65-.64,1.62-1.82-.04-1.11.08-2.11-1.58-2.08-3.73.07-7.47.02-11.2,0-2.35-.01-2.78-.46-2.83-2.87,0-.37,0-.75.02-1.12.14-2.67.43-2.94,3.13-2.95,3.42,0,6.85-.06,10.27.02,1.54.04,2.22-.34,2.23-2.07,0-1.82-.89-2.02-2.32-1.99-3.73.08-7.47.1-11.2.12-2.65.01-2.96-.32-2.98-3.03q-.03-3.76,3.82-3.76c3.48-.01,6.97-.08,10.45-.04,1.44.01,1.98-.52,1.96-1.98-.06-3.29,0-3.3,3.26-3.31.19,0,.37,0,.56,0,3.83,0,3.86-.39,3.73,3.51-.04,1.31.49,1.76,1.76,1.74,3.3-.05,6.6-.03,9.89-.01,2.19.01,2.52.35,2.54,2.47.05,4.29-.09,4.45-4.29,4.4-2.67-.03-5.35-.06-8.02-.21-1.35-.07-1.66.63-1.55,1.7.1.99-.52,2.45,1.37,2.45,3.05,0,6.1-.01,9.15.01,2.09.02,2.47.44,2.5,2.54,0,.12,0,.25,0,.37-.03,3.97-.1,4.03-4.12,4.02-2.43,0-4.85.03-7.28,0-1.07-.01-1.53.38-1.6,1.52-.24,4.14-.27,4.13,3.43,6.01,2.79,1.41,5.35,3.15,7.85,5.02,1.13.84,1.2,1.69.56,2.88-2.1,3.87-2.49,3.97-6.04,1.35-1.79-1.32-3.53-2.75-5.57-3.57-.47.09-.49.43-.6.71-1.83,5.07-5.2,7.46-10.74,7.32-2.99-.07-5.94-.6-8.62-2.08-4.02-2.21-5.62-6.67-3.68-10.46,1.51-2.95,4.33-3.92,7.46-4.64M217.12,53c-.31,0-.63-.02-.93.03-1.18.18-2.46.32-2.57,1.89-.11,1.5.98,1.97,2.17,2.36,1.46.47,2.95.42,4.43.32,1.47-.1,2.45-1.37,2.44-2.99,0-1.74-1.39-1.46-2.41-1.58-.92-.11-1.86-.03-3.14-.02Z"/>
        <path class="cls-1" d="M130.9,37.16c-.67.36-1.23.63-1.77.94-3.7,2.11-6.17,4.63-5.69,9.57.47,4.86-.15,9.82-.22,14.73-.02,1.39-.61,1.9-1.94,1.82-.99-.06-1.99,0-2.99-.01-2.52,0-2.74-.18-2.71-2.78.02-2.8.19-5.6.25-8.39.01-.59.18-1.22-.25-1.95-1.39,1.67-2.77,3.25-4.04,4.9-1.01,1.3-1.97,1.34-3.07.18-.09-.09-.18-.17-.27-.26-3.16-3.05-3.19-3.54-.39-6.77,2.37-2.73,4.76-5.43,7.13-8.15.77-.88,1.29-4.71.79-5.7-.37-.73-1.04-.59-1.64-.57-2.05.09-4.1.21-6.15.34-1.28.08-1.81-.54-1.82-1.77-.02-6.1-.63-5.13,4.7-5.21,4.98-.08,4.96-.04,5.01-4.96.04-4.3-.67-4.05,4.19-3.96.68.01,1.36.11,2.04.18,1.04.1,1.54.64,1.5,1.72-.06,1.43-.02,2.86-.08,4.29-.05,1.14,0,2.18.78,3.15.7.86.51,1.87-.08,2.79-.41.63-.83,1.26-.42,2.1.86.29,1.35-.42,1.95-.77,4.91-2.88,10.01-4.65,15.81-3.12,5.87,1.54,9.87,6.2,10.42,12.23.34,3.74.4,7.45-1.22,10.96-1.84,3.99-5.21,6.27-9.1,7.85-1.77.72-3.68,1.13-5.52,1.67-1.64.48-2.76.01-3.73-1.51-2.61-4.06-2.64-3.98,1.99-5.06,3.55-.83,7.04-1.99,8.89-5.53,2-3.83,1.63-7.72-.42-11.4-1.44-2.6-4.82-3.62-8.47-2.75-1.14.27-2.24.74-3.48,1.19Z"/>
        <path class="cls-1" d="M289.06,40.42c4.73,6.24,4.5,19.13-6.8,22.41-5.01,1.46-10.02,1.82-15.04.23-4.95-1.57-7.46-5.96-6.05-10.39.96-3.01,3.97-4.91,7.93-5.17,5.27-.35,9.33,1.58,12.13,6.1.34.55.59,1.4,1.44,1.25.73-.13,1.02-.87,1.26-1.51,1.76-4.75.65-10.73-6.81-10.91-6.68-.16-11.79,2.95-16.69,6.83-1.37,1.08-2.69,2.22-3.98,3.39-.68.62-1.26.71-1.92.02-.21-.22-.47-.41-.7-.62-3.37-3.15-3.33-3.63.2-6.51,5.75-4.68,11.09-9.82,16.51-14.86.26-.25.48-.55.73-.84-.58-.59-1.24-.35-1.82-.35-3.3-.02-6.6-.05-9.9.02-1.56.03-2.12-.68-2.11-2.13.02-5.24-.3-4.37,4.29-4.55,5.9-.23,11.81-.27,17.67-1.04,2.17-.29,3.89.29,5.2,2.12.91,1.27.96,2.27-.32,3.38-2.64,2.27-5.19,4.65-7.78,6.99-.49.45-.97.91-1.56,1.48,1.44.92,2.83.49,4.13.53,3.82.12,7.22,1.18,9.99,4.15M270.99,53.45c-1.25-.18-2.42.03-3.04,1.22-.48.93.14,1.71.88,2.2,2.2,1.46,4.58,1.23,7.25.85-1.22-2.2-2.64-3.63-5.09-4.28Z"/>
        <path class="cls-1" d="M186.31,24.34q-.72-3.27,2.42-3.76c4.03-.63,4.13-.65,4.87,3.28,1.47,7.91,2,15.87.59,23.86-1.19,6.72-5.18,11.27-11.17,14.22-.72.36-1.46.7-2.23.94-1.33.42-2.73,1.71-4,.97-1.66-.96-2.57-2.82-3.37-4.59-.48-1.07-.11-1.77,1.1-2.04,1.03-.23,2.05-.52,3.04-.87,6.16-2.21,8.91-6.91,9.68-13.15.78-6.3-.1-12.5-.91-18.87Z"/>
        <path class="cls-1" d="M176.39,36.59c.85.82.38,1.47-.05,2.08-2.13,3.09-3.96,6.33-5.11,9.92-.51,1.59-1.86,1.36-3.06,1.55-3.42.56-3.57.5-4.26-2.81-.89-4.24-.79-8.55-.52-12.82.26-4.01.52-8.04,1.33-12,.24-1.16.73-1.61,1.87-1.54.99.07,1.97.03,2.97.24,2.34.51,2.4.66,2.03,3.1-.6,4.04-1.07,8.1-1,12.16.46.29.65-.02.82-.24q1.83-2.35,4.05-.49c.29.24.56.49.94.83Z"/>
      </g>
    </g>
  </g>
</svg>